{
	"asset":{
		"version":"2.0",
		"generator":"Houdini GLTF 2.0 Exporter"
	},
	"accessors":[
		{
			"bufferView":0,
			"componentType":5125,
			"count":50400,
			"type":"SCALAR",
			"min":[0
			],
			"max":[11630
			]
		},
		{
			"bufferView":1,
			"componentType":5126,
			"count":11631,
			"type":"VEC3",
			"min":[-2.37169433,-0.631036758,-1.16562951
			],
			"max":[1.36493969,3.92906189,1.47906828
			]
		},
		{
			"bufferView":2,
			"componentType":5126,
			"count":11631,
			"type":"VEC3",
			"min":[-0.99999851,-0.999990463,-0.999363959
			],
			"max":[0.999617577,1,0.999954402
			]
		},
		{
			"bufferView":3,
			"componentType":5126,
			"count":11631,
			"type":"VEC2",
			"min":[0.000173700333,0.000173687935
			],
			"max":[0.966866076,0.999479413
			]
		}
	],
	"buffers":[
		{
			"uri":"testgltf_data.bin",
			"byteLength":573792,
			"name":"main_buffer"
		}
	],
	"bufferViews":[
		{
			"buffer":0,
			"byteLength":201600,
			"target":34963
		},
		{
			"buffer":0,
			"byteOffset":201600,
			"byteLength":139572,
			"target":34962
		},
		{
			"buffer":0,
			"byteOffset":341172,
			"byteLength":139572,
			"target":34962
		},
		{
			"buffer":0,
			"byteOffset":480744,
			"byteLength":93048,
			"target":34962
		}
	],
	"nodes":[
		{
			"children":[1
			],
			"name":"Natalia_FaceMesh_LOD2_1"
		},
		{
			"mesh":0
		}
	],
	"meshes":[
		{
			"primitives":[
				{
					"attributes":{
						"POSITION":1,
						"NORMAL":2,
						"TEXCOORD_0":3
					},
					"indices":0,
					"material":0
				}
			],
			"name":"fbxcharacterimport1"
		}
	],
	"materials":[
		{
			"name":"principledshader1",
			"pbrMetallicRoughness":{
				"baseColorFactor":[0.800000012,0.800000012,0.800000012,1
				],
				"metallicFactor":0,
				"roughnessFactor":0.300000012
			}
		}
	],
	"scenes":[
		{
			"nodes":[0
			],
			"name":"file1"
		}
	],
	"scene":0
}
